
<svg width="143" height="77" viewBox="0 0 143 77" fill="none" xmlns="http://www.w3.org/2000/svg">
<g filter="url(#filter0_d_309_25646)">
<rect x="1" y="1" width="138" height="72" rx="36" fill="#171717"/>
<rect x="1" y="1" width="138" height="72" rx="36" stroke="#FAFAFA" stroke-width="1.6"/>
</g>
<path d="M34.2528 22.171C34.3038 22.154 34.3548 22.154 34.4228 22.154C34.6268 22.171 34.9668 22.188 35.4428 22.205C35.9358 22.222 36.3438 22.239 36.6668 22.273C37.0068 22.29 37.3808 22.358 37.8228 22.426C38.2478 22.511 38.6558 22.647 39.0638 22.817C39.4548 23.004 39.8288 23.225 40.1688 23.497C40.7128 23.973 41.1038 24.602 41.3078 25.316C41.5288 26.081 41.6308 26.897 41.5968 27.696C41.5628 28.512 41.4098 29.311 41.1208 30.076C40.8998 30.756 40.4918 31.368 39.9478 31.844C39.2168 32.439 38.2988 32.745 37.3808 32.915C36.6838 33.068 35.9698 33.119 35.2558 33.051C34.8818 33.017 33.4538 32.966 33.4878 32.388C33.4878 32.082 33.4368 23.446 33.4198 22.902C33.4028 22.715 33.4708 22.528 33.6068 22.392C33.7258 22.239 33.9128 22.154 34.0998 22.154C34.1508 22.154 34.2018 22.154 34.2528 22.171ZM34.8988 23.633C34.9158 23.939 34.9668 31.555 34.9668 31.555C35.4428 31.708 36.8878 31.555 37.0068 31.538C37.8908 31.385 38.5708 31.13 39.0298 30.739C39.3868 30.399 39.6588 29.974 39.8118 29.498C40.0328 28.903 40.1518 28.274 40.1688 27.645C40.2028 27.016 40.1348 26.404 39.9648 25.809C39.8458 25.35 39.5908 24.942 39.2508 24.619C39.0468 24.466 38.8428 24.313 38.6048 24.211C38.3668 24.092 38.1798 24.007 38.0098 23.939C37.7718 23.871 37.5168 23.803 37.2618 23.786C36.9388 23.735 36.7008 23.718 36.5648 23.701C36.4288 23.701 36.1398 23.684 35.7148 23.667C35.2898 23.65 35.0178 23.633 34.8988 23.633ZM44.6233 28.92C44.6573 30.484 44.6403 31.606 44.6063 32.269C44.6063 32.456 44.5213 32.626 44.3853 32.745C44.2493 32.864 44.0963 32.915 43.9263 32.915C43.9093 32.915 43.8923 32.915 43.8753 32.915C43.6883 32.915 43.5013 32.83 43.3823 32.694C43.2633 32.541 43.1953 32.371 43.2123 32.184C43.2463 31.572 43.2633 30.501 43.2293 28.954C43.1953 27.458 43.2123 26.336 43.2463 25.605C43.2463 25.418 43.3313 25.231 43.4673 25.112C43.6203 24.993 43.8073 24.925 43.9773 24.942C44.1643 24.959 44.3513 25.044 44.4703 25.18C44.5893 25.316 44.6573 25.503 44.6403 25.69C44.6063 26.387 44.5893 27.475 44.6233 28.92ZM43.8243 23.854C43.6373 23.854 43.4673 23.803 43.3483 23.667C43.0593 23.378 43.1953 22.885 43.2123 22.528C43.2123 22.341 43.2973 22.171 43.4333 22.035C43.5693 21.916 43.7393 21.848 43.9263 21.848C44.1133 21.848 44.3003 21.933 44.4193 22.069C44.5383 22.205 44.6063 22.375 44.6063 22.562C44.6063 22.902 44.5893 22.868 44.5723 23.191C44.5553 23.378 44.4703 23.565 44.3343 23.684C44.1983 23.803 44.0113 23.871 43.8243 23.854ZM53.7407 32.014C53.7747 32.184 53.7407 32.354 53.6387 32.49C53.5367 32.626 53.4007 32.711 53.2477 32.728C53.2307 32.745 53.1967 32.745 53.1797 32.762L53.0267 32.796C52.8567 32.847 52.6697 32.847 52.4827 32.813C51.9897 32.711 51.6497 32.354 51.4457 31.742C51.0207 32.218 50.4767 32.558 49.8817 32.762C49.5417 32.864 49.2017 32.915 48.8617 32.915C48.5387 32.915 48.2327 32.864 47.9267 32.779C47.5017 32.643 47.1107 32.405 46.7877 32.065C46.4987 31.742 46.3117 31.334 46.2437 30.892C46.1927 30.382 46.3117 29.889 46.5667 29.464C46.6347 29.345 46.7197 29.243 46.7877 29.141C46.8897 29.022 46.9917 28.937 47.1107 28.869C47.2127 28.801 47.2977 28.733 47.3827 28.682C47.4847 28.614 47.6207 28.563 47.7397 28.512C47.8757 28.478 47.9777 28.444 48.0287 28.41C48.1647 28.376 48.2837 28.342 48.4197 28.325C48.6237 28.291 48.6917 28.274 48.7087 28.274C48.8277 28.24 48.9467 28.223 49.0657 28.223L49.3377 28.172C49.7457 28.121 50.1537 28.036 50.5277 27.883C50.7827 27.781 50.9867 27.577 51.0717 27.305C51.1567 27.05 51.1227 26.778 50.9867 26.54C50.9017 26.37 50.7657 26.251 50.6127 26.166C50.4597 26.115 50.1197 26.064 49.3547 26.132C48.7767 26.183 48.0117 26.336 47.8587 26.999C47.8417 27.118 47.8247 27.22 47.7907 27.339C47.6887 27.662 47.3487 27.866 47.0257 27.798C46.8557 27.747 46.7197 27.662 46.6177 27.509C46.5157 27.373 46.4817 27.203 46.5327 27.033C46.6687 26.098 47.3317 25.316 48.2497 25.044C48.5727 24.942 48.8957 24.891 49.2357 24.891C50.0347 24.806 50.6297 24.84 51.0377 24.976C51.4967 25.146 51.8707 25.469 52.0917 25.877C52.3127 26.217 52.4487 26.778 52.4997 27.577C52.4997 27.645 52.4997 28.376 52.5167 29.549C52.5167 30.093 52.5507 30.654 52.6527 31.198C52.6697 31.317 52.7037 31.436 52.7547 31.538C52.7717 31.538 52.7887 31.538 52.8057 31.538C52.8737 31.504 52.9417 31.504 53.0097 31.504C53.1627 31.47 53.3497 31.504 53.4857 31.606C53.6217 31.691 53.7237 31.844 53.7407 32.014ZM51.2247 29.685C51.2247 29.617 51.2247 29.549 51.2247 29.481C51.2247 29.362 51.1567 29.26 51.0717 29.192C50.9697 29.141 50.8677 29.124 50.7487 29.158C50.3577 29.277 49.9497 29.379 49.5247 29.43C49.1167 29.498 48.7937 29.549 48.6067 29.583C48.4197 29.617 48.2327 29.685 48.0627 29.77C47.9097 29.838 47.7907 29.94 47.7057 30.076C47.5187 30.416 47.6547 30.705 47.7907 30.977C47.9097 31.249 47.9777 31.453 48.3517 31.572C48.7937 31.691 49.2697 31.657 49.6947 31.453C50.2047 31.249 50.5957 30.824 50.9187 30.382C51.0207 30.246 51.0887 30.11 51.1567 29.957C51.1907 29.872 51.2077 29.787 51.2247 29.685ZM61.1214 25.299C61.4784 27.543 61.3084 29.957 61.1384 32.218C61.0704 33.119 60.9684 33.867 60.8324 34.173C60.5944 34.7 60.2374 35.159 59.7614 35.482C59.5574 35.669 59.3364 35.822 59.0814 35.924C58.8264 36.043 58.5544 36.094 58.2824 36.094C58.0104 36.094 57.7554 36.06 57.5004 35.958H57.4664C57.1774 35.873 56.8884 35.754 56.6504 35.584C56.3784 35.431 56.1234 35.244 55.8854 35.04C55.8004 34.955 55.6814 34.853 55.5624 34.717C55.3924 34.547 55.2394 34.377 55.1204 34.173C54.7634 33.68 54.8144 33.136 55.4434 32.966C55.6134 32.915 55.7664 32.949 55.9194 33.034L55.9534 33.051L56.0894 33.17C56.1404 33.204 56.1744 33.238 56.2084 33.289L56.3104 33.425L56.5654 33.748C56.6334 33.799 56.8204 33.935 57.2964 34.275C57.4664 34.411 57.6704 34.53 57.8744 34.615C58.2144 34.666 58.5714 34.598 58.8604 34.394C59.0984 34.122 59.2684 33.799 59.3874 33.442C59.5234 33.102 59.8634 32.201 59.2854 32.371C58.8434 32.507 58.4694 32.813 58.0104 32.864C57.4834 32.949 56.9564 32.847 56.4974 32.609C55.7494 32.218 55.2054 31.504 54.8824 30.501C54.7464 30.127 54.6614 29.736 54.6444 29.328C54.6274 28.818 54.6444 28.291 54.7464 27.764C54.8314 27.305 55.0014 26.846 55.2564 26.438C55.5114 26.047 55.8344 25.707 56.2424 25.452C57.3644 24.806 58.7584 24.908 59.7784 25.707C59.7784 25.639 59.7614 25.588 59.7614 25.537C59.7104 25.35 59.7614 25.163 59.8634 25.01C59.9654 24.857 60.1354 24.755 60.3224 24.721C60.4924 24.687 60.6794 24.738 60.8324 24.84C60.9854 24.942 61.0874 25.112 61.1214 25.299ZM59.5404 30.144C59.8124 29.396 59.6594 28.495 59.4214 27.713C59.1664 26.931 58.7244 26.506 58.0104 26.438C57.9424 26.438 57.8574 26.438 57.7724 26.438C57.4834 26.421 57.2114 26.489 56.9564 26.642C56.5314 26.897 56.2594 27.373 56.1064 28.053C55.9534 28.716 55.9874 29.413 56.2084 30.076C56.4124 30.722 56.7354 31.164 57.1264 31.368C57.5684 31.589 58.0954 31.504 58.7244 31.13C59.0984 30.909 59.3874 30.569 59.5404 30.144ZM67.3486 25.741C67.3826 25.928 67.3486 26.115 67.2296 26.268C67.1276 26.421 66.9576 26.523 66.7876 26.557C66.3456 26.642 65.6656 26.761 65.4616 26.948C65.2406 27.135 65.0876 27.39 65.0026 27.662C64.9346 27.866 64.8836 28.087 64.8496 28.308C64.8326 28.648 64.8156 28.971 64.8326 29.311C64.8326 29.634 64.8326 29.94 64.8326 30.263C64.8496 30.841 64.8156 31.419 64.7306 31.997C64.7136 32.116 64.6966 32.201 64.6966 32.269L64.6796 32.303C64.6626 32.371 64.6456 32.422 64.6116 32.473C64.5946 32.541 64.5606 32.592 64.5266 32.643C64.3906 32.813 64.1866 32.898 63.9656 32.898C63.7276 32.915 63.5066 32.796 63.3706 32.592C63.3366 32.524 63.3026 32.456 63.2856 32.371C63.2856 32.354 63.2686 32.303 63.2516 32.252C63.2516 32.167 63.2346 32.099 63.2346 32.014C63.2346 31.912 63.2346 31.742 63.2346 31.521V30.722C63.2346 30.416 63.2176 29.889 63.2006 29.141C63.1836 28.376 63.1836 27.713 63.2006 27.152C63.2006 26.608 63.2346 26.064 63.2686 25.537C63.2856 25.35 63.3706 25.18 63.5066 25.061C63.6596 24.942 63.8296 24.891 64.0166 24.891C64.2036 24.908 64.3736 24.993 64.4926 25.146C64.6116 25.282 64.6796 25.469 64.6626 25.656C64.6626 25.758 64.6456 25.86 64.6456 25.945C64.9686 25.605 65.4106 25.367 65.8866 25.282C66.2436 25.197 66.7536 25.061 67.0596 25.299C67.2126 25.401 67.3146 25.571 67.3486 25.741ZM75.7875 32.014C75.8215 32.184 75.7875 32.354 75.6855 32.49C75.5835 32.626 75.4475 32.711 75.2945 32.728C75.2775 32.745 75.2435 32.745 75.2265 32.762L75.0735 32.796C74.9035 32.847 74.7165 32.847 74.5295 32.813C74.0365 32.711 73.6965 32.354 73.4925 31.742C73.0675 32.218 72.5235 32.558 71.9285 32.762C71.5885 32.864 71.2485 32.915 70.9085 32.915C70.5855 32.915 70.2795 32.864 69.9735 32.779C69.5485 32.643 69.1575 32.405 68.8345 32.065C68.5455 31.742 68.3585 31.334 68.2905 30.892C68.2395 30.382 68.3585 29.889 68.6135 29.464C68.6815 29.345 68.7665 29.243 68.8345 29.141C68.9365 29.022 69.0385 28.937 69.1575 28.869C69.2595 28.801 69.3445 28.733 69.4295 28.682C69.5315 28.614 69.6675 28.563 69.7865 28.512C69.9225 28.478 70.0245 28.444 70.0755 28.41C70.2115 28.376 70.3305 28.342 70.4665 28.325C70.6705 28.291 70.7385 28.274 70.7555 28.274C70.8745 28.24 70.9935 28.223 71.1125 28.223L71.3845 28.172C71.7925 28.121 72.2005 28.036 72.5745 27.883C72.8295 27.781 73.0335 27.577 73.1185 27.305C73.2035 27.05 73.1695 26.778 73.0335 26.54C72.9485 26.37 72.8125 26.251 72.6595 26.166C72.5065 26.115 72.1665 26.064 71.4015 26.132C70.8235 26.183 70.0585 26.336 69.9055 26.999C69.8885 27.118 69.8715 27.22 69.8375 27.339C69.7355 27.662 69.3955 27.866 69.0725 27.798C68.9025 27.747 68.7665 27.662 68.6645 27.509C68.5625 27.373 68.5285 27.203 68.5795 27.033C68.7155 26.098 69.3785 25.316 70.2965 25.044C70.6195 24.942 70.9425 24.891 71.2825 24.891C72.0815 24.806 72.6765 24.84 73.0845 24.976C73.5435 25.146 73.9175 25.469 74.1385 25.877C74.3595 26.217 74.4955 26.778 74.5465 27.577C74.5465 27.645 74.5465 28.376 74.5635 29.549C74.5635 30.093 74.5975 30.654 74.6995 31.198C74.7165 31.317 74.7505 31.436 74.8015 31.538C74.8185 31.538 74.8355 31.538 74.8525 31.538C74.9205 31.504 74.9885 31.504 75.0565 31.504C75.2095 31.47 75.3965 31.504 75.5325 31.606C75.6685 31.691 75.7705 31.844 75.7875 32.014ZM73.2715 29.685C73.2715 29.617 73.2715 29.549 73.2715 29.481C73.2715 29.362 73.2035 29.26 73.1185 29.192C73.0165 29.141 72.9145 29.124 72.7955 29.158C72.4045 29.277 71.9965 29.379 71.5715 29.43C71.1635 29.498 70.8405 29.549 70.6535 29.583C70.4665 29.617 70.2795 29.685 70.1095 29.77C69.9565 29.838 69.8375 29.94 69.7525 30.076C69.5655 30.416 69.7015 30.705 69.8375 30.977C69.9565 31.249 70.0245 31.453 70.3985 31.572C70.8405 31.691 71.3165 31.657 71.7415 31.453C72.2515 31.249 72.6425 30.824 72.9655 30.382C73.0675 30.246 73.1355 30.11 73.2035 29.957C73.2375 29.872 73.2545 29.787 73.2715 29.685ZM86.8885 26.914C87.0415 27.577 87.1095 28.24 87.1095 28.92C87.1095 29.413 87.0755 29.906 87.0245 30.739C86.9905 31.538 86.9565 32.048 86.9565 32.235C86.9565 32.609 86.6505 32.932 86.2595 32.932C85.8685 32.932 85.5625 32.609 85.5625 32.235C85.5625 32.014 85.5795 31.487 85.6305 30.654C85.6815 29.821 85.6985 29.362 85.6985 28.937C85.7155 28.359 85.6475 27.798 85.5285 27.254C85.4265 26.829 85.2905 26.557 85.1035 26.421C84.8825 26.251 84.5765 26.234 84.1855 26.37C83.4885 26.608 83.0635 27.118 82.9105 27.9L82.8425 28.24C82.8765 28.529 82.8765 28.903 82.8935 29.362C82.9105 29.821 82.9105 30.076 82.9105 30.144V31.81C82.9105 31.827 82.9105 31.861 82.9105 31.878L82.9275 31.912V32.133L82.9105 32.167C82.9105 32.269 82.8765 32.354 82.8255 32.422C82.7405 32.626 82.5535 32.762 82.3325 32.796C82.0775 32.847 81.8055 32.745 81.6525 32.524C81.5845 32.439 81.5335 32.337 81.5165 32.235C81.5165 32.201 81.5165 32.167 81.5165 32.15C81.4825 31.827 81.4655 31.521 81.4825 31.215C81.4995 31.011 81.4995 30.807 81.4995 30.62C81.4145 29.821 81.4145 29.005 81.4485 28.206C81.4315 28.036 81.4145 27.866 81.3805 27.696C81.2615 26.897 81.0065 26.455 80.6325 26.37C80.4625 26.353 80.2755 26.353 80.1055 26.37C80.0375 26.387 79.9865 26.404 79.9185 26.438C79.8505 26.489 79.7655 26.54 79.7145 26.574C79.6465 26.625 79.5955 26.676 79.5445 26.744C79.4935 26.812 79.4255 26.88 79.3745 26.965C79.3235 27.033 79.2725 27.135 79.2045 27.254C79.1365 27.373 79.0685 27.475 79.0345 27.56L78.8475 27.9C78.8305 27.934 78.8305 27.951 78.8135 28.002C78.7795 28.07 78.7625 28.138 78.7285 28.172C78.5585 28.546 78.4905 28.971 78.5075 29.379C78.5075 29.872 78.5075 30.229 78.5075 30.467C78.5075 30.705 78.5245 30.841 78.5245 31.215C78.5415 31.589 78.5755 31.946 78.5925 32.252C78.6095 32.439 78.5585 32.626 78.4225 32.762C78.3035 32.915 78.1335 33 77.9465 33.017C77.9295 33.017 77.9125 33.017 77.8955 33.017C77.7255 33.017 77.5725 32.949 77.4365 32.847C77.3005 32.728 77.2155 32.558 77.1985 32.371C77.1645 31.895 77.1305 31.419 77.1305 30.96C77.1135 30.467 77.1135 30.076 77.1135 29.379C77.0965 28.699 77.0965 28.24 77.0965 27.985C77.0965 27.883 77.0965 27.645 77.0795 27.271C77.0795 26.914 77.0625 26.625 77.0625 26.421V26.404C77.0625 26.37 77.0455 26.319 77.0455 26.285C77.0455 26.234 77.0455 26.2 77.0285 26.166V26.132C77.0115 26.03 77.0115 25.911 77.0285 25.792C77.0625 25.537 77.2665 25.299 77.5215 25.231C77.7935 25.146 78.0655 25.231 78.2525 25.418C78.3715 25.537 78.4565 25.673 78.4905 25.843C79.0685 25.129 80.0035 24.806 80.9045 25.027C81.4825 25.129 81.9925 25.503 82.2815 26.013C82.6725 25.571 83.1655 25.231 83.7265 25.061C84.5765 24.755 85.3075 24.84 85.9195 25.282C86.3785 25.622 86.7015 26.166 86.8885 26.914ZM100.989 32.014C101.023 32.184 100.989 32.354 100.887 32.49C100.785 32.626 100.649 32.711 100.496 32.728C100.479 32.745 100.445 32.745 100.428 32.762L100.275 32.796C100.105 32.847 99.9177 32.847 99.7307 32.813C99.2377 32.711 98.8977 32.354 98.6937 31.742C98.2687 32.218 97.7247 32.558 97.1297 32.762C96.7897 32.864 96.4497 32.915 96.1097 32.915C95.7867 32.915 95.4807 32.864 95.1747 32.779C94.7497 32.643 94.3587 32.405 94.0357 32.065C93.7467 31.742 93.5597 31.334 93.4917 30.892C93.4407 30.382 93.5597 29.889 93.8147 29.464C93.8827 29.345 93.9677 29.243 94.0357 29.141C94.1377 29.022 94.2397 28.937 94.3587 28.869C94.4607 28.801 94.5457 28.733 94.6307 28.682C94.7327 28.614 94.8687 28.563 94.9877 28.512C95.1237 28.478 95.2257 28.444 95.2767 28.41C95.4127 28.376 95.5317 28.342 95.6677 28.325C95.8717 28.291 95.9397 28.274 95.9567 28.274C96.0757 28.24 96.1947 28.223 96.3137 28.223L96.5857 28.172C96.9937 28.121 97.4017 28.036 97.7757 27.883C98.0307 27.781 98.2347 27.577 98.3197 27.305C98.4047 27.05 98.3707 26.778 98.2347 26.54C98.1497 26.37 98.0137 26.251 97.8607 26.166C97.7077 26.115 97.3677 26.064 96.6027 26.132C96.0247 26.183 95.2597 26.336 95.1067 26.999C95.0897 27.118 95.0727 27.22 95.0387 27.339C94.9367 27.662 94.5967 27.866 94.2737 27.798C94.1037 27.747 93.9677 27.662 93.8657 27.509C93.7637 27.373 93.7297 27.203 93.7807 27.033C93.9167 26.098 94.5797 25.316 95.4977 25.044C95.8207 24.942 96.1437 24.891 96.4837 24.891C97.2827 24.806 97.8777 24.84 98.2857 24.976C98.7447 25.146 99.1187 25.469 99.3397 25.877C99.5607 26.217 99.6967 26.778 99.7477 27.577C99.7477 27.645 99.7477 28.376 99.7647 29.549C99.7647 30.093 99.7987 30.654 99.9007 31.198C99.9177 31.317 99.9517 31.436 100.003 31.538C100.02 31.538 100.037 31.538 100.054 31.538C100.122 31.504 100.19 31.504 100.258 31.504C100.411 31.47 100.598 31.504 100.734 31.606C100.87 31.691 100.972 31.844 100.989 32.014ZM98.4727 29.685C98.4727 29.617 98.4727 29.549 98.4727 29.481C98.4727 29.362 98.4047 29.26 98.3197 29.192C98.2177 29.141 98.1157 29.124 97.9967 29.158C97.6057 29.277 97.1977 29.379 96.7727 29.43C96.3647 29.498 96.0417 29.549 95.8547 29.583C95.6677 29.617 95.4807 29.685 95.3107 29.77C95.1577 29.838 95.0387 29.94 94.9537 30.076C94.7667 30.416 94.9027 30.705 95.0387 30.977C95.1577 31.249 95.2257 31.453 95.5997 31.572C96.0417 31.691 96.5177 31.657 96.9427 31.453C97.4527 31.249 97.8437 30.824 98.1667 30.382C98.2687 30.246 98.3367 30.11 98.4047 29.957C98.4387 29.872 98.4557 29.787 98.4727 29.685ZM107.16 28.954C107.823 29.481 108.061 30.195 107.874 31.096C107.738 31.725 107.364 32.286 106.803 32.626C106.31 32.932 105.749 33.085 105.188 33.085C105.137 33.085 105.069 33.085 105.018 33.068C104.406 33.051 103.811 32.864 103.284 32.541C102.757 32.235 102.366 31.742 102.162 31.164C102.094 30.994 102.094 30.807 102.179 30.637C102.264 30.467 102.417 30.331 102.587 30.28C102.757 30.212 102.961 30.229 103.131 30.314C103.301 30.382 103.42 30.535 103.471 30.722C103.59 30.994 103.777 31.232 104.049 31.368C104.355 31.555 104.712 31.674 105.086 31.674C105.409 31.708 105.749 31.623 106.038 31.47C106.276 31.317 106.446 31.062 106.514 30.79C106.599 30.348 106.429 30.161 106.293 30.059C106.14 29.923 105.783 29.719 104.933 29.481C103.964 29.226 103.369 29.005 103.08 28.852C102.315 28.427 101.958 27.832 102.009 27.05C102.043 26.472 102.332 25.945 102.808 25.622C103.267 25.282 103.811 25.061 104.372 24.976C104.933 24.891 105.511 24.925 106.055 25.061C106.582 25.18 107.041 25.503 107.313 25.962C107.449 26.2 107.534 26.438 107.585 26.693C107.619 26.88 107.704 27.152 107.653 27.339C107.585 27.645 107.126 27.781 106.837 27.747C106.599 27.713 106.395 27.56 106.276 27.356C106.174 27.135 106.259 26.863 106.106 26.659C106.004 26.506 105.851 26.404 105.681 26.37C105.324 26.285 104.95 26.285 104.593 26.37C104.27 26.387 103.964 26.506 103.709 26.693C103.539 26.795 103.437 26.965 103.403 27.152C103.386 27.271 103.42 27.458 103.76 27.628C103.896 27.713 104.287 27.866 105.307 28.155C106.191 28.41 106.786 28.665 107.16 28.954ZM60.986 50.229C61.088 50.042 61.173 49.872 61.241 49.685C61.394 49.328 61.802 49.158 62.159 49.294C62.516 49.447 62.686 49.855 62.55 50.212C62.448 50.484 62.329 50.756 62.193 51.028C61.836 51.555 61.36 52.014 60.833 52.371C60.306 52.728 59.728 52.966 59.116 53.102C58.487 53.221 57.858 53.187 57.246 53C54.9 52.32 53.557 49.124 53.88 46.846C53.982 46.268 54.152 45.707 54.39 45.18C54.934 43.922 55.971 42.919 57.246 42.409C57.943 42.12 58.691 42.018 59.439 42.086C60.187 42.171 60.901 42.477 61.479 42.97C61.836 43.276 62.142 43.633 62.397 44.041C62.55 44.313 62.873 44.84 62.754 45.18C62.618 45.52 62.193 45.554 61.87 45.503C61.462 45.435 61.343 45.18 61.173 44.857C61.02 44.551 60.816 44.296 60.561 44.075C60.204 43.769 59.745 43.582 59.269 43.531C58.759 43.48 58.249 43.548 57.773 43.752C57.229 43.973 56.753 44.313 56.379 44.738C56.09 45.044 55.852 45.401 55.699 45.792C55.053 47.254 55.461 49.634 56.566 50.756C56.974 51.181 57.501 51.538 58.062 51.623C58.623 51.708 59.201 51.606 59.711 51.351C60.238 51.096 60.68 50.705 60.986 50.229ZM69.7537 45.707C70.1617 46.115 70.4847 46.591 70.6887 47.135C70.8927 47.662 70.9947 48.206 70.9947 48.767C70.9777 49.311 70.8927 49.855 70.7227 50.365C70.4847 51.062 70.0597 51.691 69.4987 52.167C68.9377 52.643 68.2407 52.915 67.5097 52.949C67.4247 52.983 67.3397 53.017 67.2377 53C67.1867 53 67.1357 53 67.0847 52.983C66.9657 52.966 66.8297 52.949 66.7107 52.898C66.6767 52.898 66.6427 52.898 66.5917 52.881C65.6397 52.626 64.8237 51.98 64.3477 51.113C63.8717 50.246 63.7697 49.243 64.0417 48.155C64.1607 47.679 64.3477 47.203 64.6197 46.778C64.8747 46.353 65.1977 45.962 65.5717 45.639C66.3877 44.925 67.5097 44.67 68.5637 44.925C68.7167 44.959 68.8697 45.01 69.0227 45.095C69.1247 45.146 69.2267 45.197 69.3117 45.282C69.3797 45.316 69.4647 45.401 69.5667 45.52L69.7537 45.707ZM69.3967 49.906C69.6007 49.362 69.6517 48.767 69.5327 48.189C69.4307 47.628 69.1757 47.118 68.7677 46.71L68.7507 46.693C68.6997 46.642 68.6487 46.591 68.5977 46.54L68.5637 46.506L68.4617 46.387C68.4447 46.37 68.4277 46.353 68.3937 46.336C68.3937 46.336 68.3767 46.319 68.3597 46.319L68.2407 46.285C67.6287 46.132 66.9827 46.285 66.4897 46.71C65.9457 47.152 65.5547 47.798 65.4017 48.495C65.2147 49.141 65.2657 49.838 65.5717 50.45C65.8777 50.994 66.3877 51.385 66.9827 51.538C67.5097 51.623 68.0367 51.487 68.4787 51.181C68.9037 50.875 69.2267 50.416 69.3967 49.906ZM78.7535 48.206C78.7365 48.767 78.8895 50.875 78.8725 51.317C78.8725 51.793 78.8555 52.116 78.8555 52.286V52.337C78.8555 52.405 78.8555 52.456 78.8385 52.507C78.8215 52.592 78.8045 52.66 78.7535 52.728C78.6345 52.932 78.4135 53.051 78.1925 53.051C78.1245 53.051 78.0735 53.051 78.0055 53.034C77.9205 53.017 77.8185 52.983 77.7335 52.915C77.6825 52.864 77.6315 52.813 77.5805 52.745C77.5635 52.728 77.5465 52.694 77.5465 52.66C77.5125 52.626 77.4955 52.592 77.4955 52.558C77.4785 52.507 77.4615 52.456 77.4615 52.405V52.371C77.4615 52.337 77.4445 52.286 77.4445 52.201C77.0875 52.49 76.6625 52.694 76.2035 52.813C75.6255 52.932 75.0305 52.898 74.4865 52.66C73.6705 52.337 73.0075 51.725 72.6335 50.926C72.2085 50.059 72.0725 49.056 72.2425 48.104C72.2765 47.849 72.3105 47.662 72.3445 47.526C72.3955 47.356 72.4465 47.169 72.5145 46.999C72.5995 46.778 72.7185 46.557 72.8715 46.37C73.2625 45.86 73.7895 45.452 74.3845 45.214C74.9625 44.993 75.5915 44.942 76.2035 45.061C76.6455 45.163 77.0535 45.35 77.4105 45.639C77.4275 44.483 77.4105 43.65 77.3425 42.783C77.3425 42.596 77.3935 42.409 77.5125 42.273C77.6315 42.12 77.8015 42.035 77.9885 42.018C78.1755 42.018 78.3625 42.069 78.4985 42.188C78.6515 42.307 78.7365 42.477 78.7535 42.664C78.8215 43.701 78.8385 44.738 78.8045 45.775C78.8045 46.013 78.8045 46.421 78.7875 46.965C78.7705 47.492 78.7535 47.9 78.7535 48.206ZM77.3425 50.195V48.308C77.2915 48.002 77.2065 47.713 77.0875 47.424C76.9005 47.033 76.5945 46.727 76.2035 46.54C75.9995 46.438 75.7615 46.387 75.5405 46.387C75.3705 46.387 75.2005 46.421 75.0305 46.472C74.6055 46.591 74.2315 46.863 73.9765 47.22C73.8745 47.339 73.8065 47.475 73.7725 47.628C73.7045 47.849 73.6535 48.07 73.6365 48.308C73.4835 48.971 73.5685 49.668 73.8745 50.28C74.0955 50.773 74.5035 51.164 74.9965 51.368C75.3875 51.521 75.8295 51.504 76.2035 51.334C76.6285 51.164 77.0025 50.79 77.3425 50.195ZM87.0551 47.951C87.0551 48.087 87.0721 48.206 87.0891 48.291V48.325V48.495C87.0721 48.597 87.0551 48.699 87.0211 48.801C86.8851 49.124 86.6131 49.396 86.2731 49.515C85.9501 49.617 85.6101 49.651 85.2531 49.634C84.9301 49.651 84.4711 49.651 83.8931 49.651L83.0261 49.634L82.1591 49.6C82.0571 49.6 81.9721 49.6 81.8871 49.6C81.9381 49.94 82.0401 50.263 82.1931 50.552C82.3631 50.892 82.6181 51.198 82.9411 51.419C83.1621 51.538 83.3831 51.606 83.6211 51.606C83.9101 51.623 84.1991 51.589 84.4711 51.487C84.7431 51.402 84.9811 51.266 85.1851 51.062C85.4401 50.824 85.5931 50.382 85.8821 50.212C86.0521 50.11 86.2391 50.076 86.4261 50.127C86.5961 50.178 86.7491 50.297 86.8341 50.45C86.9361 50.62 86.9701 50.807 86.9191 50.994C86.7831 51.47 86.5281 51.725 86.1711 52.065C85.8141 52.388 85.3891 52.643 84.9471 52.813C84.5901 52.932 84.2331 53 83.8591 53C83.7571 53.017 83.6551 53 83.5531 53C83.0601 52.983 82.6011 52.83 82.1931 52.575C81.5471 52.15 81.0541 51.538 80.7651 50.824C80.4761 50.11 80.3741 49.328 80.4591 48.563C80.5441 47.832 80.7991 47.135 81.2071 46.54C81.5641 46.03 82.0571 45.639 82.6181 45.418C83.1621 45.197 83.7571 45.112 84.3351 45.18C84.9301 45.248 85.4911 45.486 85.9501 45.86C86.4431 46.251 86.8001 46.778 86.9531 47.39C86.9871 47.577 87.0211 47.764 87.0551 47.951ZM85.6611 48.223C85.6611 48.189 85.6611 48.172 85.6611 48.138C85.6271 47.934 85.6101 47.815 85.5931 47.747C85.5081 47.424 85.3211 47.152 85.0661 46.948C84.8111 46.744 84.4881 46.608 84.1651 46.574C83.8251 46.523 83.4851 46.574 83.1621 46.693C82.8391 46.812 82.5671 47.033 82.3631 47.322C82.1931 47.594 82.0571 47.883 81.9721 48.206C82.1591 48.206 82.4141 48.206 82.7371 48.223C83.2641 48.24 83.6551 48.24 83.9271 48.257C84.4711 48.257 84.8961 48.257 85.2191 48.24C85.4571 48.24 85.5931 48.223 85.6611 48.223Z" fill="#FAFAFA"/>
<defs>
<filter id="filter0_d_309_25646" x="0.200012" y="0.200195" width="142.6" height="76.5996" filterUnits="userSpaceOnUse" color-interpolation-filters="sRGB">
<feFlood flood-opacity="0" result="BackgroundImageFix"/>
<feColorMatrix in="SourceAlpha" type="matrix" values="0 0 0 0 0 0 0 0 0 0 0 0 0 0 0 0 0 0 127 0" result="hardAlpha"/>
<feOffset dx="3" dy="3"/>
<feColorMatrix type="matrix" values="0 0 0 0 0.294118 0 0 0 0 0.294118 0 0 0 0 0.294118 0 0 0 1 0"/>
<feBlend mode="normal" in2="BackgroundImageFix" result="effect1_dropShadow_309_25646"/>
<feBlend mode="normal" in="SourceGraphic" in2="effect1_dropShadow_309_25646" result="shape"/>
</filter>
</defs>
</svg>